<svg width="14" height="14" viewBox="0 0 14 14" fill="none" xmlns="http://www.w3.org/2000/svg">
<path d="M12.5 0H1.5C0.65625 0 0 0.6875 0 1.5V12.5C0 13.3438 0.65625 14 1.5 14H12.5C13.3125 14 14 13.3438 14 12.5V1.5C14 0.6875 13.3125 0 12.5 0ZM12.5 12.5H1.5V1.5H12.5V12.5ZM11.375 4.96875C11.5 4.8125 11.5 4.59375 11.375 4.4375L10.6562 3.71875C10.5312 3.5625 10.2812 3.5625 10.125 3.71875L5.71875 8.09375L3.84375 6.21875C3.6875 6.0625 3.46875 6.0625 3.3125 6.21875L2.59375 6.90625C2.46875 7.0625 2.46875 7.3125 2.59375 7.4375L5.4375 10.3125C5.59375 10.4688 5.8125 10.4688 5.96875 10.3125L11.375 4.96875Z" fill="#9DA1B4"/>
</svg>
